<?xml version="1.0" standalone="no"?>
<!DOCTYPE svg PUBLIC "-//W3C//DTD SVG 20010904//EN"
 "http://www.w3.org/TR/2001/REC-SVG-20010904/DTD/svg10.dtd">
<svg version="1.0" xmlns="http://www.w3.org/2000/svg"
 width="260.000000pt" height="260.000000pt" viewBox="0 0 260.000000 260.000000"
 preserveAspectRatio="xMidYMid meet">
<metadata>
Created by potrace 1.11, written by Peter Selinger 2001-2013
</metadata>
<g transform="translate(0.000000,260.000000) scale(0.100000,-0.100000)"
fill="#000000" stroke="none">
<path d="M0 1300 l0 -1300 1300 0 1300 0 0 1300 0 1300 -1300 0 -1300 0 0
-1300z m1852 1144 c111 -28 192 -96 230 -194 32 -82 37 -237 10 -322 -11 -34
-20 -80 -20 -101 0 -84 -34 -117 -121 -117 -27 0 -68 -9 -92 -19 -24 -10 -60
-22 -79 -25 -27 -5 -21 -1 25 19 84 36 89 45 24 45 -36 0 -67 -7 -93 -21 -21
-11 -35 -15 -31 -9 21 34 125 54 182 36 19 -6 34 4 88 56 69 67 76 82 48 96
-26 14 -63 -3 -63 -28 0 -13 4 -19 11 -14 7 4 10 1 7 -7 -8 -24 -33 -15 -36
12 -5 41 23 62 74 56 42 -4 44 -4 56 32 18 52 14 204 -7 279 -19 66 -70 135
-119 161 -23 13 -28 12 -45 -3 -21 -19 -17 -56 5 -56 17 0 18 17 2 23 -10 4
-9 8 2 16 19 13 45 -11 37 -33 -14 -36 -81 -32 -93 6 -5 17 0 27 22 44 31 26
31 26 -12 43 -34 13 -84 1 -84 -21 0 -10 2 -10 9 1 6 9 14 10 26 4 16 -9 16
-11 0 -27 -11 -11 -25 -14 -39 -10 -31 10 -37 26 -20 51 14 23 14 23 -33 23
-27 0 -55 -5 -63 -10 -10 -6 -11 -10 -2 -10 18 0 15 -20 -4 -27 -10 -4 -22 1
-30 11 -11 16 -15 16 -42 2 -70 -36 -119 -135 -91 -184 27 -49 97 -54 139 -12
27 27 25 46 -5 66 -21 14 -31 15 -50 6 -27 -12 -35 -52 -11 -52 8 0 13 8 12
18 -1 22 23 22 37 0 17 -26 -9 -50 -52 -46 -33 3 -36 6 -39 36 -5 46 20 72 68
72 51 0 90 -32 90 -73 -1 -56 -40 -87 -112 -87 -82 0 -127 78 -94 163 46 122
204 177 378 131z m308 -203 c0 -21 -3 -41 -7 -44 -10 -11 -34 54 -28 74 10 32
35 10 35 -30z m-314 -33 c-9 -45 -51 -105 -89 -128 -35 -21 -67 -26 -67 -10 0
6 6 10 14 10 21 0 30 19 16 35 -10 12 -6 15 17 21 15 4 34 12 41 17 11 9 9 12
-8 19 -27 10 -17 28 16 28 13 0 32 9 41 20 24 27 27 25 19 -12z m151 -49 c7
-6 13 -28 13 -49 0 -58 -2 -58 -71 6 -9 8 -16 26 -16 40 0 24 2 25 30 20 16
-3 36 -11 44 -17z m-177 -172 c28 -22 50 -61 50 -89 0 -20 4 -26 15 -22 20 8
20 -34 0 -60 -20 -26 -66 -56 -87 -56 -15 0 -16 4 -7 24 10 20 8 29 -10 52
-25 31 -28 74 -6 74 13 0 12 5 -5 28 -12 17 -18 35 -14 45 7 20 42 22 64 4z
m387 -107 c7 -78 -13 -123 -69 -151 -48 -24 -48 -14 -3 67 22 39 38 84 42 115
8 66 23 50 30 -31z m-670 -81 c-3 -28 30 -50 43 -29 8 13 13 13 37 -2 25 -15
28 -23 25 -60 -1 -26 -14 -62 -32 -91 -37 -59 -39 -87 -7 -87 13 0 28 5 34 11
14 14 62 -36 63 -65 0 -20 -29 -50 -71 -72 -72 -37 -204 -230 -244 -357 -29
-91 -31 -145 -9 -211 12 -35 15 -71 12 -136 -4 -77 -9 -98 -40 -162 -87 -174
-264 -297 -429 -298 -191 -1 -425 132 -499 283 -28 58 -58 168 -61 227 -1 17
-3 19 -6 8 -2 -10 -9 -18 -14 -18 -15 0 -10 97 6 137 19 44 12 56 -9 16 l-15
-28 -1 25 c0 42 19 98 45 129 23 26 23 29 7 36 -13 5 -5 11 31 21 52 16 60 29
22 38 -34 9 -32 28 3 25 45 -3 82 1 82 9 0 4 -15 13 -33 21 -29 11 -30 13 -12
21 11 5 31 9 45 9 71 3 176 86 320 251 108 125 228 195 350 206 98 9 156 31
265 103 50 33 91 60 92 60 2 1 2 -8 0 -20z m342 -185 c27 -34 26 -47 -2 -80
-33 -38 -79 -37 -115 1 l-27 28 29 -21 c34 -26 73 -28 98 -5 23 21 23 55 -1
77 -27 25 -65 5 -58 -30 2 -13 0 -21 -4 -18 -16 9 -10 53 9 63 28 17 49 12 71
-15z m-439 -1447 c12 3 20 0 20 -6 0 -7 -11 -11 -26 -9 -24 3 -26 7 -28 51 -2
64 8 72 12 9 3 -44 5 -49 22 -45z m610 65 c0 -5 -5 -13 -11 -19 -7 -7 0 -17
26 -33 20 -12 34 -25 31 -28 -3 -3 -24 7 -46 22 l-40 26 -2 -27 c0 -16 -4 -5
-7 22 -3 28 -2 53 3 57 11 7 46 -8 46 -20z m-896 -28 c32 -57 32 -63 4 -38
-28 25 -43 25 -63 -1 -9 -11 -15 -15 -13 -10 4 13 42 94 45 95 1 0 13 -21 27
-46z m66 6 c0 -33 3 -40 20 -40 12 0 21 8 24 23 3 12 7 31 9 42 3 11 5 3 6
-17 1 -21 -6 -43 -15 -52 -18 -18 -24 -19 -42 -7 -17 11 -29 91 -13 91 6 0 11
-17 11 -40z m119 -2 c-3 -39 -2 -43 19 -40 12 2 22 -2 22 -7 0 -6 -13 -11 -30
-11 -29 0 -30 1 -30 50 0 29 5 50 11 50 6 0 9 -17 8 -42z m162 -11 c-4 -61
-11 -59 -11 3 0 29 3 50 7 46 4 -4 6 -26 4 -49z m97 41 c19 -19 15 -66 -7 -78
-38 -20 -46 -13 -46 40 0 44 3 50 21 50 11 0 25 -5 32 -12z m122 -31 c0 -44
-38 -67 -64 -38 -21 23 -20 37 4 61 16 16 25 18 40 10 11 -6 20 -21 20 -33z
m85 4 c33 -42 48 -40 67 9 6 15 12 20 15 12 3 -7 -7 -28 -22 -48 l-27 -35 -38
43 c-22 24 -39 46 -40 51 -1 16 17 4 45 -32z m143 28 c-10 -5 -18 -14 -18 -19
0 -6 8 -10 18 -10 15 -1 15 -2 -3 -16 -20 -15 -20 -15 -1 -30 15 -10 16 -14 5
-14 -21 0 -39 20 -39 43 0 29 19 57 38 57 16 -1 16 -1 0 -11z m220 -1 c29 -29
2 -88 -39 -88 -16 0 -19 7 -19 50 0 46 2 50 23 50 13 0 28 -5 35 -12z m80 1
c-10 -5 -18 -14 -18 -19 0 -6 8 -10 18 -10 15 -1 15 -2 -3 -16 -20 -15 -20
-15 -1 -30 15 -10 16 -14 5 -14 -21 0 -39 20 -39 43 0 29 19 57 38 57 16 -1
16 -1 0 -11z m-898 -183 c0 -2 -7 -6 -15 -10 -8 -3 -15 -1 -15 4 0 6 7 10 15
10 8 0 15 -2 15 -4z m110 -19 c0 -7 -10 -14 -22 -14 -18 -2 -20 0 -8 7 8 5 11
10 7 10 -5 0 -5 5 -2 10 8 13 25 3 25 -13z m87 -2 c-5 -10 -17 -14 -42 -13
-33 3 -52 25 -20 25 8 0 15 -4 15 -9 0 -5 10 -2 22 6 25 17 33 14 25 -9z m93
15 c-13 -9 -13 -11 0 -20 13 -8 12 -10 -2 -10 -10 0 -18 6 -18 13 0 17 10 27
24 27 6 0 4 -5 -4 -10z m345 -11 c0 -8 -12 -15 -27 -17 -22 -3 -28 1 -28 15 0
15 2 16 10 3 8 -12 10 -12 16 3 7 20 29 17 29 -4z m-573 -11 c-5 -19 -7 -20
-10 -5 -4 20 -18 23 -25 5 -3 -8 -6 -6 -6 5 -1 12 7 17 23 17 20 0 23 -4 18
-22z m325 9 c3 -4 13 -1 21 6 11 8 14 8 9 0 -4 -6 -1 -13 5 -16 7 -3 -15 -5
-49 -4 -58 0 -72 5 -58 19 8 7 63 3 72 -5z m76 0 c18 12 67 12 67 1 0 -6 7 -5
15 2 9 7 18 10 22 6 3 -3 0 -6 -8 -6 -11 0 -11 -2 1 -10 11 -7 3 -9 -27 -8
-24 1 -43 5 -43 10 0 5 -5 6 -10 3 -6 -4 -8 -10 -5 -15 3 -4 -4 -6 -15 -3 -11
3 -20 13 -19 22 0 10 2 11 6 3 2 -6 10 -9 16 -5z m-460 -14 c-7 -2 -19 -2 -25
0 -7 3 -2 5 12 5 14 0 19 -2 13 -5z m234 1 c-3 -3 -12 -4 -19 -1 -8 3 -5 6 6
6 11 1 17 -2 13 -5z"/>
<path d="M2025 1811 c-16 -21 -42 -47 -57 -57 -39 -26 -35 -38 10 -31 48 8 82
46 82 93 0 19 -1 34 -2 34 -2 -1 -16 -18 -33 -39z"/>
<path d="M1250 1571 c-30 -6 -32 -7 -13 -13 12 -3 30 0 40 8 10 7 16 13 13 12
-3 0 -21 -4 -40 -7z"/>
<path d="M1193 1534 c-10 -29 -10 -31 8 -27 11 3 22 10 26 16 3 5 1 7 -5 3 -6
-4 -12 3 -14 16 -3 21 -4 20 -15 -8z"/>
<path d="M934 1450 c-35 -14 -43 -60 -10 -60 8 0 13 8 12 18 -1 11 6 17 19 17
15 0 21 -8 23 -33 3 -27 -5 -41 -54 -92 -31 -33 -78 -70 -105 -84 -35 -17 -44
-25 -31 -28 11 -3 44 17 90 53 39 33 74 59 77 59 3 0 5 -29 5 -65 0 -73 13
-112 62 -182 l33 -48 5 60 5 60 15 -45 c14 -41 85 -130 106 -130 5 0 8 30 6
67 l-2 68 19 -53 c11 -32 35 -71 59 -95 35 -36 42 -52 53 -111 27 -160 -12
-278 -131 -390 -102 -96 -191 -134 -255 -110 -29 11 -47 62 -41 113 4 33 1 57
-12 85 l-18 40 -21 -56 c-28 -73 -18 -115 37 -160 48 -37 50 -48 11 -48 -47 0
-79 17 -97 52 -16 32 -16 58 1 191 3 20 4 37 2 37 -2 0 -18 -22 -35 -49 -43
-67 -44 -117 -1 -166 35 -39 34 -53 -3 -35 -68 36 -79 77 -49 175 12 37 19 70
17 72 -8 8 -65 -71 -71 -98 -4 -15 1 -43 10 -64 8 -21 13 -40 11 -42 -8 -8
-44 21 -61 50 -25 42 -13 83 42 139 52 53 50 58 -12 28 -43 -21 -65 -53 -65
-95 0 -39 -17 -29 -36 21 -16 42 -16 49 -3 73 21 37 82 68 150 75 65 8 76 20
28 30 -76 15 -129 -1 -168 -50 l-20 -26 -7 28 c-5 17 -2 37 7 53 13 23 24 27
89 34 41 4 83 5 93 3 18 -4 18 -3 2 14 -24 27 -77 33 -121 15 -20 -8 -38 -14
-40 -12 -2 1 8 17 22 35 21 26 32 32 65 32 21 0 57 -7 79 -16 50 -20 61 -12
29 22 -21 22 -30 25 -68 21 l-44 -5 31 20 c37 23 74 18 127 -17 32 -22 35 -23
35 -6 0 25 -29 49 -65 53 -30 4 -30 4 8 12 49 11 77 -12 77 -62 0 -34 0 -35
20 -17 24 22 25 42 3 67 -21 23 -14 30 16 15 37 -19 47 -42 34 -77 -13 -34 -4
-39 22 -10 11 12 16 29 13 44 -4 21 -2 23 16 17 11 -5 29 -19 39 -33 16 -22
17 -29 7 -49 -7 -13 -18 -27 -24 -31 -8 -5 -7 -8 2 -8 14 0 52 36 52 50 0 21
18 9 31 -21 12 -29 11 -33 -10 -50 -17 -14 -19 -19 -8 -19 9 0 19 4 22 10 14
23 25 7 25 -37 -1 -52 -14 -76 -57 -105 -34 -22 -43 -23 -43 -3 0 9 -6 12 -17
8 -12 -5 -15 -2 -10 10 4 12 1 17 -10 17 -12 0 -13 3 -4 14 9 11 9 15 -1 18
-10 4 -10 8 1 21 19 23 28 21 27 -5 -1 -18 5 -24 27 -26 23 -3 27 0 27 21 0
33 -23 51 -57 43 -20 -5 -24 -4 -13 3 8 6 11 14 6 18 -4 4 -13 0 -20 -10 -7
-9 -18 -17 -24 -17 -13 0 -27 -44 -18 -58 3 -6 -1 -13 -9 -16 -21 -8 -3 -42
27 -52 l23 -7 -25 -9 -25 -10 24 -9 c14 -6 37 -6 58 0 29 8 34 7 29 -5 -3 -8
-2 -14 2 -14 20 0 55 36 78 82 30 58 44 57 20 -2 -18 -44 -6 -54 20 -15 15 23
15 29 1 73 -20 63 -28 102 -23 102 3 0 16 -19 30 -42 25 -41 26 -42 26 -15 0
17 -10 36 -25 50 -89 78 -115 118 -48 72 46 -31 60 -13 18 23 -20 17 -36 22
-54 19 -16 -3 -40 3 -61 14 l-35 20 67 -4 c72 -5 80 4 23 23 -26 9 -44 9 -70
0 -35 -12 -75 -6 -75 11 0 5 15 9 33 10 17 0 41 4 52 8 16 7 11 10 -27 16 -39
6 -51 4 -76 -15 -20 -15 -40 -20 -63 -18 -34 3 -34 4 31 35 63 30 64 31 30 32
-36 1 -80 -22 -103 -52 -14 -19 -77 -41 -77 -27 0 5 12 16 28 24 15 8 41 29
57 46 30 32 30 32 5 25 -62 -19 -120 -67 -120 -101 0 -11 -50 -54 -64 -54 -3
0 8 21 23 48 16 26 32 60 36 77 l6 29 -21 -19 c-28 -26 -56 -81 -65 -128 -7
-36 -21 -55 -32 -44 -2 3 1 21 8 40 7 21 9 49 5 73 -7 36 -9 37 -22 20 -21
-30 -27 -81 -14 -121 10 -31 9 -39 -10 -68 l-22 -32 6 59 c5 48 3 67 -15 104
l-22 45 -13 -49 c-18 -68 -17 -84 8 -124 17 -28 22 -51 23 -115 1 -141 56
-244 168 -316 78 -51 153 -73 247 -73 92 0 136 14 222 71 107 70 184 174 214
287 20 75 17 128 -12 214 -15 45 -23 86 -19 101 5 25 5 25 -10 7 -14 -19 -15
-19 -40 10 -34 38 -50 69 -65 124 l-13 45 -13 -30 c-7 -16 -13 -47 -14 -67 0
-21 -4 -38 -10 -38 -26 0 -88 135 -76 166 4 10 1 14 -6 12 -7 -3 -20 -26 -29
-52 -16 -47 -16 -47 -31 -24 -38 59 -51 179 -27 258 20 67 -9 118 -57 100z"/>
<path d="M740 1274 c-25 -50 -47 -76 -77 -97 -75 -50 -51 -79 70 -85 45 -2 93
1 107 6 19 8 6 9 -50 5 -111 -7 -165 22 -107 59 43 29 87 82 93 114 13 68 -1
67 -36 -2z"/>
<path d="M840 1193 c-8 -3 -17 -9 -20 -13 -3 -3 -21 -11 -40 -17 l-35 -11 33
-1 c18 -1 31 -5 28 -10 -4 -5 3 -7 14 -4 24 6 37 23 18 23 -7 1 -1 8 15 16 15
8 27 17 27 19 0 6 -21 5 -40 -2z"/>
<path d="M753 1123 c9 -2 23 -2 30 0 6 3 -1 5 -18 5 -16 0 -22 -2 -12 -5z"/>
<path d="M2010 224 c0 -8 5 -12 10 -9 6 3 10 10 10 16 0 5 -4 9 -10 9 -5 0
-10 -7 -10 -16z"/>
<path d="M1120 210 c0 -5 5 -10 11 -10 5 0 7 5 4 10 -3 6 -8 10 -11 10 -2 0
-4 -4 -4 -10z"/>
<path d="M1560 200 c0 -45 15 -52 32 -15 8 19 8 28 -2 40 -21 25 -30 17 -30
-25z"/>
<path d="M1667 223 c-13 -12 -7 -44 9 -50 20 -7 33 12 27 38 -5 19 -24 25 -36
12z"/>
<path d="M2130 200 c0 -29 4 -40 13 -37 6 2 12 19 12 37 0 18 -6 35 -12 38 -9
2 -13 -9 -13 -38z"/>
</g>
</svg>
