<?xml version="1.0" standalone="no"?>
<!DOCTYPE svg PUBLIC "-//W3C//DTD SVG 20010904//EN"
 "http://www.w3.org/TR/2001/REC-SVG-20010904/DTD/svg10.dtd">
<svg version="1.0" xmlns="http://www.w3.org/2000/svg"
 width="314.000000pt" height="314.000000pt" viewBox="0 0 314.000000 314.000000"
 preserveAspectRatio="xMidYMid meet">
<metadata>
Created by potrace 1.11, written by Peter Selinger 2001-2013
</metadata>
<g transform="translate(0.000000,314.000000) scale(0.100000,-0.100000)"
fill="#000000" stroke="none">
<path d="M1346 3114 c-260 -40 -515 -149 -731 -313 -122 -93 -325 -319 -376
-419 -8 -15 -26 -49 -42 -76 -42 -73 -100 -219 -130 -326 -45 -161 -52 -221
-52 -425 0 -185 5 -225 41 -372 43 -176 117 -344 219 -497 57 -84 68 -99 163
-205 81 -90 241 -218 352 -279 135 -76 269 -131 415 -168 108 -28 116 -29 375
-29 258 0 268 1 375 29 280 72 533 213 726 406 95 95 203 233 255 325 6 11 22
40 36 65 43 78 105 241 134 355 28 108 29 116 29 375 0 259 -1 268 -28 375
-149 573 -581 1006 -1147 1150 -54 13 -83 19 -190 35 -84 12 -324 9 -424 -6z"/>
</g>
</svg>
